<svg xmlns="http://www.w3.org/2000/svg" width="43.202" height="27.002" viewBox="0 0 43.202 27.002">
  <g id="_317709_behance_creative_creatives_portfolio_icon" data-name="317709_behance_creative_creatives_portfolio_icon" transform="translate(0 -6)">
    <path id="Path_1" data-name="Path 1" d="M17.435,18.518s4.087-.311,4.087-5.2S18.75,6.023,14.513,6.023L0,6V33H14.851s7.425.235,7.425-8.1C22.276,24.9,22.821,18.518,17.435,18.518ZM5.4,10.05h7.425s2.541.042,2.541,3.336c0,3.414-2.541,3.414-2.541,3.414H5.4Zm8.1,18.9H5.4v-8.1h8.1s4.05.042,4.05,4.05A3.75,3.75,0,0,1,13.5,28.951Z" fill="#111"/>
    <path id="Path_2" data-name="Path 2" d="M27.628,11C17.485,11,17.5,21.125,17.5,21.125s-.675,10.125,10.125,10.125c0,0,9.45,0,9.45-8.1h-5.4s0,4.05-4.05,4.05c0,0-4.05,0-4.05-5.4h13.5C37.078,19.1,37.078,11,27.628,11Zm-4.05,8.1a3.894,3.894,0,0,1,4.05-4.05,3.9,3.9,0,0,1,4.05,4.05Z" transform="translate(6.124 1.75)" fill="#111"/>
    <rect id="Rectangle_10" data-name="Rectangle 10" width="11" height="2" transform="translate(28.202 9.002)" fill="#111"/>
  </g>
</svg>
