<svg xmlns="http://www.w3.org/2000/svg" width="31.992" height="31.204" viewBox="0 0 31.992 31.204">
  <path id="_317712_code_repository_github_repository_resource_icon" data-name="317712_code repository_github_repository_resource_icon" d="M16,0a16,16,0,0,0-5.055,31.176c.8.146,1.052-.328,1.052-.752,0-.38.008-1.442,0-2.777-4.449.967-5.371-2.107-5.371-2.107A4.236,4.236,0,0,0,4.854,23.2c-1.452-.992.109-.973.109-.973a3.363,3.363,0,0,1,2.451,1.649A3.407,3.407,0,0,0,12.068,25.2a3.423,3.423,0,0,1,1.017-2.139C9.533,22.662,5.8,21.29,5.8,15.16a6.181,6.181,0,0,1,1.646-4.292A5.742,5.742,0,0,1,7.6,6.634S8.945,6.2,12,8.275a15.176,15.176,0,0,1,8.01,0c3.055-2.07,4.4-1.641,4.4-1.641a5.753,5.753,0,0,1,.159,4.234,6.18,6.18,0,0,1,1.644,4.292c0,6.146-3.74,7.5-7.3,7.893A3.783,3.783,0,0,1,20,26v4.428c0,.428.258.9,1.07.746A16,16,0,0,0,16,0Z" transform="translate(-0.008)" fill="#111" fill-rule="evenodd"/>
</svg>
